<svg width="25" height="25" viewBox="0 0 25 25" fill="none" xmlns="http://www.w3.org/2000/svg">
<path fill-rule="evenodd" clip-rule="evenodd" d="M0 12.5C0 5.60754 5.6075 0 12.5 0C19.3925 0 25 5.60754 25 12.5C25 19.3925 19.3925 25 12.5 25C5.6075 25 0 19.3925 0 12.5ZM2.65945 12.5004C2.65945 17.9265 7.07408 22.3406 12.4999 22.3406C17.9258 22.3406 22.3404 17.9265 22.3404 12.5004C22.3404 7.07422 17.9258 2.66016 12.4999 2.66016C7.07408 2.66016 2.65945 7.07422 2.65945 12.5004Z" fill="#FFC59E"/>
<path d="M19.0149 12.1136H13.3973V5.35931C13.3973 4.79092 12.9365 4.33008 12.3681 4.33008C11.7997 4.33008 11.3389 4.79092 11.3389 5.35931V13.1429C11.3389 13.7113 11.7997 14.1721 12.3681 14.1721H19.0149C19.5833 14.1721 20.0441 13.7113 20.0441 13.1429C20.0441 12.5745 19.5833 12.1136 19.0149 12.1136Z" fill="#FFC59E"/>
</svg>
